# Blender v2.79 (sub 0) OBJ File: 'Couch_Small2.blend'
# www.blender.org
mtllib Couch_Small2.mtl
o Couch_Small2_Cube.026
v -1.022005 -0.000000 1.282318
v -1.022005 0.034820 1.317138
v -1.056825 0.034820 1.282318
v -1.056825 0.421250 1.282318
v -1.022005 0.421250 1.317138
v -1.022005 0.490890 1.317138
v -1.056825 0.490890 1.282318
v -1.056825 0.034820 -0.640331
v -1.022005 0.034820 -0.675151
v -1.022005 -0.000000 -0.640331
v -1.056825 0.490890 -0.640331
v -1.022005 0.490890 -0.675151
v -1.022005 0.421250 -0.675151
v -1.056825 0.421250 -0.640331
v 1.056825 0.034820 1.282318
v 1.022005 0.034820 1.317138
v 1.022005 -0.000000 1.282318
v 1.056825 0.490890 1.282318
v 1.022005 0.490890 1.317138
v 1.022005 0.421250 1.317138
v 1.056825 0.421250 1.282318
v 1.022005 0.034820 -0.675151
v 1.056825 0.034820 -0.640331
v 1.022005 -0.000000 -0.640331
v 1.022005 0.490890 -0.675151
v 1.056825 0.490890 -0.640331
v 1.056825 0.421250 -0.640331
v 1.022005 0.421250 -0.675151
v 0.726109 0.490890 -0.675151
v 0.726109 0.421250 -0.675151
v 0.656469 0.421250 -0.675151
v 0.656469 0.490890 -0.675151
v 0.726109 0.000000 1.282318
v 0.726109 0.034820 1.317138
v 0.656469 0.034820 1.317138
v 0.656469 0.000000 1.282318
v 0.726109 0.000000 -0.640331
v 0.656469 0.000000 -0.640331
v 0.656469 0.034820 -0.675151
v 0.726109 0.034820 -0.675151
v 0.726109 0.490890 1.317138
v 0.691289 0.490890 1.282318
v 0.656469 0.456070 1.282318
v 0.656469 0.421250 1.317138
v 0.726109 0.421250 1.317138
v -0.726109 0.000000 -0.640331
v -0.726109 0.034820 -0.675151
v -0.656469 0.034820 -0.675151
v -0.656469 0.000000 -0.640331
v -0.726109 0.490890 1.317138
v -0.726109 0.421250 1.317138
v -0.656469 0.421250 1.317138
v -0.656469 0.456070 1.282318
v -0.691289 0.490890 1.282318
v -0.656469 0.490890 -0.675151
v -0.656469 0.421250 -0.675151
v -0.726109 0.421250 -0.675151
v -0.726109 0.490890 -0.675151
v -0.656469 0.034820 1.317138
v -0.726109 0.034820 1.317138
v -0.726109 0.000000 1.282318
v -0.656469 0.000000 1.282318
v -1.056825 0.034820 -0.286172
v -1.056825 0.034820 -0.355812
v -1.022005 -0.000000 -0.355812
v -1.022005 -0.000000 -0.286172
v -1.056825 0.490890 -0.355812
v -1.056825 0.421250 -0.355812
v -1.056825 0.421250 -0.286172
v -1.056825 0.490890 -0.286172
v 1.056825 0.034820 -0.355812
v 1.056825 0.034820 -0.286172
v 1.022005 -0.000000 -0.286172
v 1.022005 -0.000000 -0.355812
v 1.056825 0.490890 -0.286172
v 1.056825 0.421250 -0.286172
v 1.056825 0.421250 -0.355812
v 1.056825 0.490890 -0.355812
v 0.656469 0.456070 -0.286172
v 0.691289 0.490890 -0.286172
v 0.656469 0.490890 -0.320992
v 0.726109 0.000000 -0.286172
v 0.656469 0.000000 -0.286172
v 0.656469 0.000000 -0.355812
v 0.726109 0.000000 -0.355812
v -0.656469 0.000000 -0.286172
v -0.726109 0.000000 -0.286172
v -0.726109 0.000000 -0.355812
v -0.656469 0.000000 -0.355812
v -0.691289 0.490890 -0.286172
v -0.656469 0.456070 -0.286172
v -0.656469 0.490890 -0.320992
v 0.656469 1.234294 -0.675151
v 0.656469 1.269114 -0.640331
v 0.726109 1.269114 -0.640331
v 0.726109 1.234294 -0.675151
v -0.726109 1.269114 1.282318
v -0.726109 1.234294 1.317138
v -0.691289 1.234294 1.282318
v -0.726109 1.234294 -0.675151
v -0.726109 1.269114 -0.640331
v -0.656469 1.269114 -0.640331
v -0.656469 1.234294 -0.675151
v 0.726109 1.269114 1.282318
v 0.691289 1.234294 1.282318
v 0.726109 1.234294 1.317138
v 0.656469 1.234294 -0.320992
v 0.691289 1.234294 -0.286172
v 0.726109 1.269114 -0.286172
v 0.726109 1.269114 -0.355812
v 0.656469 1.269114 -0.355812
v -0.726109 1.269114 -0.286172
v -0.691289 1.234294 -0.286172
v -0.656469 1.234294 -0.320992
v -0.656469 1.269114 -0.355812
v -0.726109 1.269114 -0.355812
v -1.032203 1.244493 -0.286172
v -1.032203 1.244493 -0.355812
v -1.056825 1.185052 -0.355812
v -1.056825 1.185052 -0.286172
v -1.032203 1.244493 -0.286172
v -0.972762 1.269114 -0.286172
v -0.972762 1.269114 -0.355812
v -1.032203 1.244493 -0.355812
v -1.022005 1.205449 -0.675151
v -1.056825 1.185052 -0.640331
v -1.032203 1.244493 -0.640331
v -0.972762 1.269114 -0.640331
v -0.993159 1.234294 -0.675151
v -1.032203 1.244493 -0.640331
v 0.993159 1.234294 -0.675151
v 0.972762 1.269114 -0.640331
v 1.032203 1.244493 -0.640331
v 1.022005 1.205449 -0.675151
v 1.032203 1.244493 -0.640331
v 1.056825 1.185052 -0.640331
v 1.032203 1.244493 -0.355812
v 1.032203 1.244493 -0.286172
v 1.056825 1.185052 -0.286172
v 1.056825 1.185052 -0.355812
v 1.032203 1.244493 -0.355812
v 0.972762 1.269114 -0.355812
v 0.972762 1.269114 -0.286172
v 1.032203 1.244493 -0.286172
v 1.022005 1.205449 1.317138
v 1.056825 1.185052 1.282318
v 1.032203 1.244493 1.282318
v 0.972762 1.269114 1.282318
v 0.993159 1.234294 1.317138
v 1.032203 1.244493 1.282318
v -0.993159 1.234294 1.317138
v -0.972762 1.269114 1.282318
v -1.032203 1.244493 1.282318
v -1.022005 1.205449 1.317138
v -1.032203 1.244493 1.282318
v -1.056825 1.185052 1.282318
v -0.339254 0.903724 0.061449
v 0.028270 0.917875 0.061449
v 0.395794 0.903724 0.061449
v -0.339254 0.927440 0.444309
v 0.028270 0.942956 0.444309
v 0.395794 0.927440 0.444309
v -0.339254 0.903724 0.827170
v 0.028270 0.917875 0.827170
v 0.395794 0.903724 0.827170
v 0.395794 0.411837 0.061449
v 0.028270 0.397686 0.061449
v -0.339254 0.411837 0.061449
v 0.395794 0.388122 0.444309
v 0.028270 0.372606 0.444309
v -0.339254 0.388122 0.444309
v 0.395794 0.411837 0.827170
v 0.028270 0.397686 0.827170
v -0.339254 0.411837 0.827170
v -0.706778 0.554397 1.210030
v -0.607135 0.476486 1.160536
v 0.663674 0.476486 1.160536
v 0.763318 0.554397 1.210030
v -0.607134 0.476486 -0.271917
v -0.706778 0.554397 -0.321411
v 0.663674 0.476486 -0.271917
v 0.763318 0.554397 -0.321411
v 0.663674 0.839076 1.160536
v 0.763318 0.761165 1.210030
v -0.607134 0.839076 1.160536
v -0.706778 0.761165 1.210030
v -0.607134 0.839076 -0.271917
v -0.706778 0.761165 -0.321411
v 0.663674 0.839076 -0.271917
v 0.763318 0.761165 -0.321411
v -0.616677 0.456488 0.061449
v -0.706778 0.538331 0.061449
v -0.623234 0.438235 0.444309
v -0.706778 0.525477 0.444309
v -0.706778 0.538331 0.827170
v -0.616677 0.456488 0.827170
v 0.763318 0.538331 0.061449
v 0.673217 0.456488 0.061449
v 0.763318 0.525477 0.444309
v 0.679774 0.438235 0.444309
v 0.673217 0.456488 0.827170
v 0.763318 0.538331 0.827170
v -0.706778 0.777231 0.061449
v -0.616677 0.859074 0.061449
v -0.706778 0.790085 0.444309
v -0.623234 0.877327 0.444309
v -0.616677 0.859074 0.827170
v -0.706778 0.777231 0.827170
v 0.673217 0.859074 0.061449
v 0.763318 0.777231 0.061449
v 0.679774 0.877327 0.444309
v 0.763318 0.790085 0.444309
v 0.763318 0.777231 0.827170
v 0.673217 0.859074 0.827170
v 0.395794 0.517269 1.210030
v 0.395794 0.441350 1.160677
v 0.028270 0.508386 1.210030
v 0.028270 0.428934 1.160813
v -0.339254 0.441350 1.160677
v -0.339254 0.517269 1.210030
v -0.339254 0.517269 -0.321411
v -0.339254 0.441350 -0.272058
v 0.028270 0.508386 -0.321411
v 0.028270 0.428934 -0.272194
v 0.395794 0.441350 -0.272058
v 0.395794 0.517269 -0.321411
v 0.395794 0.874212 1.160677
v 0.395794 0.798293 1.210030
v 0.028270 0.886627 1.160813
v 0.028270 0.807175 1.210030
v -0.339254 0.798293 1.210030
v -0.339254 0.874212 1.160677
v -0.339254 0.874212 -0.272058
v -0.339254 0.798293 -0.321411
v 0.028270 0.886627 -0.272194
v 0.028270 0.807175 -0.321411
v 0.395794 0.798293 -0.321411
v 0.395794 0.874212 -0.272058
vn -1.0000 0.0000 0.0000
vn -0.9808 0.1951 0.0000
vn -0.9240 0.1611 -0.3468
vn -0.0000 0.0000 -1.0000
vn 1.0000 0.0000 0.0000
vn 0.9808 0.1951 0.0000
vn 0.9240 0.1611 0.3468
vn 0.0000 -1.0000 0.0000
vn -0.9240 0.1611 0.3468
vn -0.0980 0.2872 0.9528
vn 0.0980 0.2872 0.9528
vn 0.0000 0.0000 1.0000
vn 0.0000 1.0000 0.0000
vn 0.2872 0.0980 0.9528
vn 0.9240 0.1611 -0.3468
vn 0.0980 0.9528 0.2872
vn -0.0980 0.9528 0.2872
vn -0.0942 0.0942 0.9911
vn 0.1611 0.9240 -0.3468
vn -0.0942 0.9911 0.0942
vn 0.1951 0.9808 0.0000
vn 0.0942 0.0942 0.9911
vn -0.2872 0.9528 0.0980
vn 0.1611 0.9240 0.3468
vn -0.2872 0.0980 0.9528
vn -0.1611 0.9240 -0.3468
vn -0.1951 0.9808 -0.0000
vn 0.0942 0.9911 0.0942
vn -0.8871 0.3299 0.3228
vn 0.2872 0.9528 0.0980
vn -0.1611 0.9240 0.3468
vn -0.4606 -0.7588 0.4606
vn -0.4606 -0.4606 0.7588
vn -0.7588 -0.4606 0.4606
vn -0.7071 0.0000 0.7071
vn -0.7588 -0.4606 -0.4606
vn -0.4606 -0.4606 -0.7588
vn -0.4606 -0.7588 -0.4606
vn -0.7071 0.0000 -0.7071
vn 0.7588 -0.4606 0.4606
vn 0.4606 -0.4606 0.7588
vn 0.4606 -0.7588 0.4606
vn 0.7071 0.0000 0.7071
vn 0.4606 -0.4606 -0.7588
vn 0.7588 -0.4606 -0.4606
vn 0.4606 -0.7588 -0.4606
vn 0.7071 0.0000 -0.7071
vn -0.0000 -0.7071 0.7071
vn -0.0000 -0.7071 -0.7071
vn -0.5305 0.2168 0.8195
vn -0.2168 0.5305 0.8195
vn 0.2168 0.5305 0.8195
vn 0.5305 0.2168 0.8195
vn -0.7071 -0.7071 0.0000
vn 0.7071 -0.7071 0.0000
vn -0.4606 0.7588 0.4606
vn -0.7588 0.4606 0.4606
vn -0.4606 0.4606 0.7588
vn 0.7588 0.4606 0.4606
vn 0.4606 0.7588 0.4606
vn 0.4606 0.4606 0.7588
vn 0.0000 0.7071 -0.7071
vn -0.2168 0.8195 0.5305
vn -0.5305 0.8195 0.2168
vn 0.5305 0.8195 0.2168
vn 0.2168 0.8195 0.5305
vn -0.9657 0.2596 0.0000
vn -0.3827 0.9239 -0.0000
vn -0.6778 0.2808 -0.6795
vn -0.7813 0.4461 -0.4365
vn -0.2808 0.6778 -0.6795
vn -0.4461 0.7813 -0.4365
vn 0.2808 0.6778 -0.6795
vn 0.4461 0.7813 -0.4365
vn 0.6778 0.2808 -0.6795
vn 0.7813 0.4461 -0.4365
vn 0.9239 0.3827 0.0000
vn 0.3827 0.9239 0.0000
vn 0.6778 0.2808 0.6795
vn 0.7813 0.4461 0.4365
vn 0.2808 0.6778 0.6795
vn 0.4461 0.7813 0.4365
vn -0.2808 0.6778 0.6795
vn -0.4461 0.7813 0.4365
vn -0.6778 0.2808 0.6795
vn -0.7071 0.7071 0.0000
vn 0.7071 0.7071 0.0000
vn -0.0906 0.9924 -0.0831
vn -0.4313 0.9001 -0.0621
vn -0.4294 0.9014 -0.0555
vn -0.0969 0.9927 -0.0713
vn 0.4313 -0.9001 -0.0621
vn 0.4294 -0.9014 -0.0555
vn 0.0969 -0.9927 -0.0713
vn 0.0906 -0.9924 -0.0831
vn 0.0192 -0.1680 -0.9856
vn 0.0219 -0.2953 -0.9551
vn 0.0219 0.2953 -0.9551
vn 0.0192 0.1680 -0.9856
vn 0.4294 -0.9014 0.0555
vn 0.4313 -0.9001 0.0621
vn 0.0906 -0.9924 0.0831
vn 0.0969 -0.9927 0.0713
vn -0.0906 -0.9924 -0.0831
vn -0.0969 -0.9927 -0.0713
vn -0.4294 -0.9014 -0.0555
vn -0.4313 -0.9001 -0.0621
vn -0.1033 -0.9946 -0.0000
vn -0.0969 -0.9927 0.0713
vn -0.4294 -0.9014 0.0555
vn -0.4515 -0.8923 -0.0000
vn 0.4515 -0.8923 0.0000
vn 0.1033 -0.9946 -0.0000
vn 0.0219 -0.2953 0.9551
vn 0.0192 -0.1680 0.9856
vn 0.0192 0.1680 0.9856
vn 0.0219 0.2953 0.9551
vn -0.4515 0.8923 0.0000
vn -0.1033 0.9946 -0.0000
vn 0.4313 0.9001 -0.0621
vn 0.0906 0.9924 -0.0831
vn 0.0969 0.9927 -0.0713
vn 0.4294 0.9014 -0.0555
vn -0.4294 0.9014 0.0555
vn -0.0969 0.9927 0.0713
vn 0.1033 0.9946 -0.0000
vn 0.4515 0.8923 -0.0000
vn -0.0219 -0.2953 -0.9551
vn -0.0192 -0.1680 -0.9856
vn -0.0192 0.1680 -0.9856
vn -0.0219 0.2953 -0.9551
vn 0.0000 -0.9970 0.0771
vn -0.0000 -0.9970 -0.0771
vn 0.4294 0.9014 0.0555
vn 0.0969 0.9927 0.0713
vn 0.0906 0.9924 0.0831
vn 0.4313 0.9001 0.0621
vn -0.0000 0.9970 0.0771
vn 0.0000 0.9959 0.0907
vn 0.0000 -0.2829 -0.9592
vn 0.0000 0.2829 -0.9592
vn 0.0000 -0.9959 0.0907
vn -0.0000 0.9970 -0.0771
vn 0.0000 0.9959 -0.0907
vn 0.0000 -0.9959 -0.0907
vn -0.0906 -0.9924 0.0831
vn -0.4313 -0.9001 0.0621
vn -0.4313 0.9001 0.0621
vn -0.0906 0.9924 0.0831
vn -0.0000 -0.2829 0.9592
vn -0.0000 0.2829 0.9592
vn -0.0219 -0.2953 0.9551
vn -0.0219 0.2953 0.9551
vn -0.0192 -0.1680 0.9856
vn -0.0649 -0.5689 0.8199
vn -0.0392 -0.5518 0.8331
vn -0.6361 -0.7702 0.0473
vn -0.6667 -0.7442 0.0413
vn 0.6667 -0.7442 0.0413
vn 0.6361 -0.7702 0.0473
vn 0.0649 -0.5689 -0.8199
vn 0.0392 -0.5518 -0.8331
vn -0.0392 0.5518 0.8331
vn -0.0649 0.5689 0.8199
vn -0.0192 0.1680 0.9856
vn -0.6667 0.7442 0.0413
vn -0.6361 0.7702 0.0473
vn 0.6361 0.7702 0.0473
vn 0.6667 0.7442 0.0413
vn 0.0392 0.5518 -0.8331
vn 0.0649 0.5689 -0.8199
vn -0.6667 -0.7442 -0.0413
vn -0.6361 -0.7702 -0.0473
vn -0.6976 -0.7165 -0.0000
vn 0.6361 -0.7702 -0.0473
vn 0.6667 -0.7442 -0.0413
vn 0.6976 -0.7165 0.0000
vn -0.6361 0.7702 -0.0473
vn -0.6667 0.7442 -0.0413
vn -0.6976 0.7165 -0.0000
vn 0.6667 0.7442 -0.0413
vn 0.6361 0.7702 -0.0473
vn 0.6976 0.7165 -0.0000
vn 0.0392 -0.5518 0.8331
vn 0.0649 -0.5689 0.8199
vn -0.0000 -0.5357 0.8444
vn -0.0392 -0.5518 -0.8331
vn -0.0649 -0.5689 -0.8199
vn 0.0000 -0.5357 -0.8444
vn 0.0649 0.5689 0.8199
vn 0.0392 0.5518 0.8331
vn -0.0000 0.5357 0.8444
vn -0.0649 0.5689 -0.8199
vn -0.0392 0.5518 -0.8331
vn 0.0000 0.5357 -0.8444
usemtl Couch_BeigeDark
s 1
f 11//1 67//1 119//2 126//3
f 25//4 29//4 96//4 131//4 134//4
f 18//5 75//5 139//6 146//7
f 66//8 87//8 61//8 1//8
f 72//5 76//5 21//5 15//5
f 70//1 7//1 156//9 120//2
f 49//8 38//8 84//8 89//8
f 83//8 36//8 62//8 86//8
f 44//10 52//11 59//12 35//12
f 91//13 53//13 43//13 79//13
f 82//8 73//8 17//8 33//8
f 23//5 27//5 77//5 71//5
f 10//8 46//8 88//8 65//8
f 6//12 50//14 98//12 151//12 154//12
f 78//5 26//5 136//15 140//6
f 64//1 68//1 14//1 8//1
f 94//13 102//13 115//16 111//17
f 16//12 20//12 45//18 34//12
f 56//4 31//4 39//4 48//4
f 132//19 95//13 110//20 142//21
f 40//4 30//4 28//4 22//4
f 37//8 24//8 74//8 85//8
f 60//12 51//22 5//12 2//12
f 143//21 109//23 104//13 148//24
f 41//25 19//12 145//12 149//12 106//12
f 32//4 55//4 103//4 93//4
f 9//4 13//4 57//4 47//4
f 101//13 128//26 123//27 116//28
f 153//1 121//1 117//2 155//29
f 54//5 90//5 113//5 99//5
f 92//12 81//12 107//12 114//12
f 112//30 122//27 152//31 97//13
f 133//12 141//12 137//12 135//12
f 124//12 130//12 127//12 118//12
f 144//12 150//12 147//12 138//12
f 58//4 12//4 125//4 129//4 100//4
f 80//1 42//1 105//1 108//1
f 1//32 2//33 3//34
f 4//35 5//35 6//35 7//35
f 8//36 9//37 10//38
f 11//39 12//39 13//39 14//39
f 15//40 16//41 17//42
f 18//43 19//43 20//43 21//43
f 22//44 23//45 24//46
f 25//47 26//47 27//47 28//47
f 29//4 30//4 31//4 32//4
f 33//48 34//48 35//48 36//48
f 37//49 38//49 39//49 40//49
f 41//25 42//50 43//51 44//10 45//18
f 46//49 47//49 48//49 49//49
f 50//14 51//22 52//11 53//52 54//53
f 55//4 56//4 57//4 58//4
f 59//48 60//48 61//48 62//48
f 63//54 64//54 65//54 66//54
f 67//1 68//1 69//1 70//1
f 71//55 72//55 73//55 74//55
f 75//5 76//5 77//5 78//5
f 79//56 80//57 81//58
f 82//8 83//8 84//8 85//8
f 86//8 87//8 88//8 89//8
f 90//59 91//60 92//61
f 93//62 94//62 95//62 96//62
f 97//60 98//61 99//59
f 100//62 101//62 102//62 103//62
f 104//56 105//57 106//58
f 107//63 108//64 109//23 110//20 111//17
f 112//30 113//65 114//66 115//16 116//28
f 117//2 118//67 119//2 120//2
f 121//68 122//27 123//27 124//68
f 125//69 126//3 127//70
f 128//26 129//71 130//72
f 131//73 132//19 133//74
f 134//75 135//76 136//15
f 137//77 138//77 139//6 140//6
f 141//78 142//21 143//21 144//78
f 145//79 146//7 147//80
f 148//24 149//81 150//82
f 151//83 152//31 153//84
f 154//85 155//29 156//9
f 66//54 1//32 3//34 63//54
f 2//33 5//35 4//35 3//34
f 67//1 11//1 14//1 68//1
f 13//39 9//37 8//36 14//39
f 46//49 10//38 9//37 47//49
f 29//4 25//4 28//4 30//4
f 27//47 23//45 22//44 28//47
f 74//55 24//46 23//45 71//55
f 75//5 18//5 21//5 76//5
f 20//43 16//41 15//40 21//43
f 33//48 17//42 16//41 34//48
f 50//14 6//12 5//12 51//22
f 55//4 32//4 31//4 56//4
f 62//48 36//48 35//48 59//48
f 24//46 37//49 40//49 22//44
f 19//12 41//25 45//18 20//12
f 44//10 35//12 34//12 45//18
f 79//56 43//86 42//86 80//57
f 82//8 33//8 36//8 83//8
f 30//4 40//4 39//4 31//4
f 38//49 49//49 48//49 39//49
f 43//51 53//52 52//11 44//10
f 12//4 58//4 57//4 13//4
f 1//32 61//48 60//48 2//33
f 56//4 48//4 47//4 57//4
f 86//8 62//8 61//8 87//8
f 90//59 54//87 53//87 91//60
f 51//22 60//12 59//12 52//11
f 10//38 65//54 64//54 8//36
f 7//1 70//1 69//1 4//1
f 17//42 73//55 72//55 15//40
f 26//5 78//5 77//5 27//5
f 37//8 85//8 84//8 38//8
f 49//8 89//8 88//8 46//8
f 80//57 108//35 107//35 81//58
f 87//8 66//8 65//8 88//8
f 83//8 86//8 89//8 84//8
f 91//60 79//56 81//58 92//61
f 58//4 100//4 103//4 55//4
f 73//8 82//8 85//8 74//8
f 76//5 72//5 71//5 77//5
f 68//1 64//1 63//1 69//1
f 102//62 94//62 93//62 103//62
f 108//64 105//57 104//56 109//23
f 112//30 97//60 99//59 113//65
f 94//13 111//17 110//20 95//13
f 101//13 116//28 115//16 102//13
f 114//66 107//63 111//17 115//16
f 105//57 42//50 41//25 106//58
f 113//43 90//59 92//61 114//43
f 54//53 99//59 98//61 50//14
f 32//4 93//4 96//4 29//4
f 117//2 121//1 124//1 118//67
f 123//27 128//26 130//72 124//68
f 129//71 125//69 127//70 130//72
f 126//3 119//2 118//67 127//70
f 137//12 141//12 144//12 138//12
f 143//21 148//24 150//82 144//78
f 149//81 145//79 147//80 150//82
f 146//7 139//6 138//77 147//80
f 154//85 151//83 153//84 155//29
f 152//31 122//27 121//68 153//84
f 120//2 156//9 155//29 117//2
f 134//75 131//73 133//74 135//76
f 132//19 142//21 141//78 133//74
f 140//6 136//15 135//76 137//77
f 125//69 12//39 11//39 126//3
f 70//1 120//2 119//2 67//1
f 116//28 123//27 122//27 112//30
f 151//83 98//61 97//60 152//31
f 100//62 129//71 128//26 101//62
f 6//35 154//85 156//9 7//35
f 136//15 26//47 25//47 134//75
f 95//62 132//19 131//73 96//62
f 109//23 143//21 142//21 110//20
f 139//6 75//5 78//5 140//6
f 106//58 149//81 148//24 104//56
f 145//79 19//43 18//43 146//7
f 3//1 4//1 69//1 63//1
usemtl Couch_Beige
f 195//1 175//1 186//1 208//1
f 233//88 187//89 204//90 157//91
f 181//92 198//93 166//94 225//95
f 180//1 192//1 203//1 188//1
f 182//96 226//97 237//98 190//99
f 201//100 177//101 216//102 172//103
f 222//104 168//105 191//106 179//107
f 171//108 174//109 196//110 193//111
f 198//93 200//112 169//113 166//94
f 215//114 178//115 184//116 228//117
f 157//91 204//90 206//118 160//119
f 200//112 201//100 172//103 169//113
f 189//120 238//121 159//122 209//123
f 160//119 206//118 207//124 163//125
f 209//123 159//122 162//126 211//127
f 221//128 180//129 188//130 234//131
f 192//1 194//1 205//1 203//1
f 194//1 195//1 208//1 205//1
f 202//5 199//5 212//5 213//5
f 169//113 172//103 173//132 170//8
f 170//8 173//132 174//109 171//108
f 199//5 197//5 210//5 212//5
f 166//94 169//113 170//8 167//133
f 167//133 170//8 171//108 168//105
f 214//134 165//135 227//136 183//137
f 165//135 164//138 229//139 227//136
f 226//97 223//140 236//141 237//98
f 172//103 216//102 218//142 173//132
f 162//126 161//13 164//138 165//135
f 161//13 160//119 163//125 164//138
f 211//127 162//126 165//135 214//134
f 159//122 158//143 161//13 162//126
f 158//143 157//91 160//119 161//13
f 168//105 171//108 193//111 191//106
f 238//121 235//144 158//143 159//122
f 197//5 182//5 190//5 210//5
f 225//95 166//94 167//133 224//145
f 224//145 167//133 168//105 222//104
f 174//109 219//146 176//147 196//110
f 223//140 221//128 234//131 236//141
f 173//132 218//142 219//146 174//109
f 163//125 207//124 185//148 232//149
f 164//138 163//125 232//149 229//139
f 235//144 233//88 157//91 158//143
f 178//5 202//5 213//5 184//5
f 217//150 215//114 228//117 230//151
f 220//152 217//150 230//151 231//153
f 220//152 175//154 176//155 219//156
f 196//110 176//147 175//157 195//158
f 202//159 178//160 177//101 201//100
f 226//97 182//96 181//161 225//162
f 232//163 185//164 186//165 231//153
f 208//166 186//167 185//148 207//124
f 214//134 183//137 184//168 213//169
f 238//170 189//171 190//99 237//98
f 179//107 191//106 192//172 180//173
f 191//106 193//111 194//174 192//172
f 193//111 196//110 195//158 194//174
f 182//175 197//176 198//93 181//92
f 197//176 199//177 200//112 198//93
f 199//177 202//159 201//100 200//112
f 188//178 203//179 204//90 187//89
f 203//179 205//180 206//118 204//90
f 205//180 208//166 207//124 206//118
f 189//120 209//123 210//181 190//182
f 209//123 211//127 212//183 210//181
f 211//127 214//134 213//169 212//183
f 178//115 215//114 216//184 177//185
f 215//114 217//150 218//186 216//184
f 217//150 220//152 219//156 218//186
f 180//129 221//128 222//187 179//188
f 221//128 223//140 224//189 222//187
f 223//140 226//97 225//162 224//189
f 183//190 227//191 228//117 184//116
f 227//191 229//192 230//151 228//117
f 229//192 232//163 231//153 230//151
f 187//193 233//194 234//131 188//130
f 233//194 235//195 236//141 234//131
f 235//195 238//170 237//98 236//141
f 175//154 220//152 231//153 186//165
