# Blender v2.79 (sub 0) OBJ File: 'Houseplant_8.blend'
# www.blender.org
mtllib Houseplant_8.mtl
o Houseplant_8_Cylinder.027
v -0.000000 0.183545 -0.160368
v -0.000000 0.321349 -0.169128
v 0.113397 0.183545 -0.113397
v 0.119592 0.321349 -0.119592
v 0.160368 0.183545 0.000000
v 0.169128 0.321349 0.000000
v 0.113397 0.183545 0.113397
v 0.119592 0.321349 0.119592
v -0.000000 0.183545 0.160368
v -0.000000 0.321349 0.169128
v -0.113397 0.183545 0.113397
v -0.119592 0.321349 0.119592
v -0.160368 0.183545 -0.000000
v -0.169128 0.321349 -0.000000
v -0.113397 0.183545 -0.113397
v -0.119592 0.321349 -0.119592
v -0.000000 0.065564 -0.133220
v 0.094201 0.065564 -0.094201
v 0.133220 0.065564 0.000000
v 0.094201 0.065564 0.094201
v -0.000000 0.065564 0.133220
v -0.094201 0.065564 0.094201
v -0.133220 0.065564 -0.000000
v -0.094201 0.065564 -0.094201
v -0.000000 0.001419 -0.107659
v 0.076127 0.001419 -0.076127
v 0.107659 0.001419 0.000000
v 0.076127 0.001419 0.076127
v -0.000000 0.001419 0.107659
v -0.076127 0.001419 0.076127
v -0.107659 0.001419 -0.000000
v -0.076127 0.001419 -0.076127
v 0.110160 0.321349 -0.110160
v -0.000000 0.321349 -0.155790
v 0.155790 0.321349 0.000000
v 0.110160 0.321349 0.110160
v -0.000000 0.321349 0.155790
v -0.110160 0.321349 0.110160
v -0.155790 0.321349 -0.000000
v -0.110160 0.321349 -0.110160
v 0.106030 0.285215 -0.106030
v -0.000000 0.285215 -0.149949
v 0.149949 0.285215 0.000000
v 0.106030 0.285215 0.106030
v -0.000000 0.285215 0.149949
v -0.106030 0.285215 0.106030
v -0.149949 0.285215 -0.000000
v -0.106030 0.285215 -0.106030
v -0.021932 0.220168 0.000149
v -0.003862 1.558017 -0.002901
v -0.011850 0.220168 -0.020142
v 0.010564 0.220168 -0.016824
v 0.014334 0.220168 0.005518
v -0.005749 0.220168 0.016008
v -0.024395 0.403173 0.023092
v -0.015348 0.403173 0.004885
v 0.004763 0.403173 0.007863
v 0.008146 0.403173 0.027910
v -0.009875 0.403173 0.037322
v -0.031278 0.854840 0.006792
v -0.023948 0.854840 -0.007960
v -0.007653 0.854840 -0.005547
v -0.004912 0.854840 0.010696
v -0.019513 0.854840 0.018322
v -0.011336 1.003031 -0.001229
v -0.005130 1.003031 -0.013719
v 0.008667 1.003031 -0.011676
v 0.010988 1.003031 0.002077
v -0.001375 1.003031 0.008534
v 0.160312 0.662439 -0.129202
v 0.129493 0.662439 -0.160163
v 0.217387 0.822915 -0.167269
v -0.000429 0.448227 0.022216
v -0.205972 0.790711 -0.000867
v -0.199931 0.790711 0.042398
v -0.281749 0.961389 0.020042
v 0.001179 0.576499 0.018947
v -0.023006 0.618345 0.193376
v 0.020436 0.618345 0.197975
v -0.076519 0.785814 0.250349
v -0.000518 0.447192 0.018310
v 0.185661 0.726575 0.080356
v 0.198586 0.726575 0.038626
v 0.229110 0.906719 0.101173
v -0.001349 0.512363 0.021009
v -0.010571 0.726575 -0.207833
v -0.053648 0.726575 -0.200564
v -0.042728 0.913215 -0.260281
v 0.000917 0.512363 0.022082
v 0.022566 1.107275 0.059876
v 0.042410 1.107275 0.047999
v 0.057876 1.282335 0.130320
v -0.002321 1.032205 -0.004220
v 0.014140 0.733116 -0.107279
v -0.008860 0.733116 -0.109704
v 0.108622 0.935279 -0.138101
v -0.006395 0.637711 0.010247
v -0.090451 1.010191 -0.037857
v -0.105524 1.009675 0.003143
v -0.214822 1.174017 -0.068765
v 0.001491 0.953635 -0.003363
v -0.106489 0.922251 0.097055
v -0.069113 0.922251 0.119670
v -0.148445 1.043773 0.140722
v -0.008185 0.838585 0.008336
v 0.081731 0.810318 -0.017545
v 0.086905 0.810821 -0.060920
v 0.129390 1.004792 -0.042077
v -0.008625 0.733279 0.007648
v 0.110841 1.291457 0.054028
v 0.122909 1.291457 0.030432
v 0.137876 1.401466 0.071698
v -0.002594 1.157581 -0.003455
v -0.032015 1.291457 -0.133146
v -0.055837 1.291457 -0.121531
v -0.056053 1.386928 -0.177811
v 0.001013 1.157581 -0.002939
v -0.115160 1.231734 -0.004804
v -0.109649 1.231734 0.021119
v -0.153288 1.351714 0.007922
v 0.001093 1.097859 -0.004750
v -0.005278 1.291457 0.108027
v 0.021222 1.291457 0.107641
v 0.014773 1.389233 0.152020
v -0.001730 1.157581 -0.004704
v 0.124089 1.184999 -0.059320
v 0.111801 1.184999 -0.082803
v 0.161982 1.281449 -0.111298
v -0.002049 1.051123 -0.002217
v 0.162208 0.658899 -0.131090
v 0.131333 0.658781 -0.161994
v 0.219606 0.820242 -0.169478
v 0.001026 0.443922 0.020768
v -0.208622 0.787172 -0.000497
v -0.202525 0.787086 0.042760
v -0.284777 0.958547 0.020465
v -0.000974 0.572317 0.019248
v -0.023299 0.614971 0.196140
v 0.020161 0.614704 0.200569
v -0.076859 0.783374 0.253555
v -0.000734 0.442887 0.020350
v 0.188469 0.723491 0.081225
v 0.201339 0.723383 0.039479
v 0.232371 0.904881 0.102183
v 0.000770 0.508229 0.021665
v -0.011033 0.723194 -0.210569
v -0.054109 0.723186 -0.203296
v -0.043284 0.911133 -0.263579
v 0.000584 0.508011 0.020107
v 0.023962 1.103802 0.062209
v 0.043789 1.103749 0.050303
v 0.059454 1.279528 0.132957
v -0.001172 1.028093 -0.002300
v 0.014455 0.730178 -0.110275
v -0.008584 0.729517 -0.112326
v 0.108989 0.933846 -0.141590
v -0.006208 0.633172 0.008469
v -0.092247 1.005767 -0.038544
v -0.107372 1.005301 0.002436
v -0.217109 1.170152 -0.069629
v 0.000219 0.948808 -0.003861
v -0.107756 0.918387 0.099148
v -0.070257 0.918107 0.121561
v -0.149997 1.040806 0.143288
v -0.008978 0.833860 0.009646
v 0.084439 0.806855 -0.017242
v 0.089942 0.807977 -0.060574
v 0.132835 1.003177 -0.041675
v -0.006715 0.728853 0.007851
v 0.113404 1.288259 0.055339
v 0.125429 1.288170 0.031721
v 0.140875 1.399464 0.073232
v -0.000665 1.153392 -0.002469
v -0.033138 1.287751 -0.135449
v -0.056934 1.287668 -0.123781
v -0.057328 1.383785 -0.180426
v 0.000084 1.153344 -0.004844
v -0.117994 1.228569 -0.004202
v -0.112428 1.228466 0.021710
v -0.156512 1.349481 0.008607
v -0.001179 1.093843 -0.004267
v -0.005238 1.287964 0.110732
v 0.021262 1.288017 0.110380
v 0.014818 1.386408 0.155085
v -0.001696 1.153581 -0.002369
v 0.126215 1.181077 -0.060433
v 0.113973 1.181142 -0.083939
v 0.164441 1.278071 -0.112585
v -0.000233 1.046816 -0.003167
vn -0.0000 -0.1416 -0.9899
vn -0.0000 -0.0634 -0.9980
vn 0.7057 -0.0634 -0.7057
vn 0.7000 -0.1416 -0.7000
vn 0.9980 -0.0634 0.0000
vn 0.9899 -0.1416 0.0000
vn 0.7057 -0.0634 0.7057
vn 0.7000 -0.1416 0.7000
vn -0.0000 -0.0634 0.9980
vn -0.0000 -0.1416 0.9899
vn -0.7057 -0.0634 0.7057
vn -0.7000 -0.1416 0.7000
vn -0.9980 -0.0634 0.0000
vn -0.9899 -0.1416 0.0000
vn 0.0000 1.0000 0.0000
vn -0.7057 -0.0634 -0.7057
vn -0.7000 -0.1416 -0.7000
vn 0.9561 -0.2929 0.0000
vn 0.6761 -0.2929 -0.6761
vn -0.0000 -0.2929 0.9561
vn -0.6761 -0.2929 0.6761
vn -0.6569 -0.3702 0.6569
vn -0.0000 -0.3702 0.9290
vn -0.0000 -0.2929 -0.9561
vn -0.6761 -0.2929 -0.6761
vn 0.6761 -0.2929 0.6761
vn -0.9561 -0.2929 0.0000
vn 0.0000 -1.0000 0.0000
vn 0.6569 -0.3702 0.6569
vn 0.9290 -0.3702 0.0000
vn 0.6569 -0.3702 -0.6569
vn -0.0000 -0.3702 -0.9290
vn -0.6569 -0.3702 -0.6569
vn -0.9290 -0.3702 0.0000
vn 0.9872 0.1596 -0.0000
vn 0.6980 0.1596 -0.6980
vn 0.0000 0.1596 -0.9872
vn -0.6980 0.1596 -0.6980
vn -0.9872 0.1596 0.0000
vn -0.6980 0.1596 0.6980
vn 0.6980 0.1596 0.6980
vn -0.0000 0.1596 0.9872
vn -0.1028 0.1967 0.9751
vn -0.6536 0.3868 0.6506
vn -0.4936 0.7176 0.4913
vn 0.9009 0.4154 -0.1258
vn 0.2851 0.8347 -0.4712
vn 0.0987 0.3486 -0.9321
vn 0.0733 0.7178 -0.6924
vn -0.9235 0.2558 -0.2860
vn -0.7044 0.6754 -0.2182
vn 0.1591 0.2924 0.9430
vn -0.3812 0.6701 -0.6369
vn 0.3126 0.7008 0.6412
vn -0.0656 0.7803 0.6220
vn 0.1138 0.7297 0.6742
vn 0.7387 0.6135 0.2793
vn -0.6584 0.7494 -0.0699
vn 0.4656 0.4372 -0.7695
vn -0.6164 0.7183 0.3225
vn -0.9682 0.2230 -0.1129
vn 0.7455 0.6473 -0.1585
vn -0.8546 0.2802 -0.4371
vn -0.0111 0.6439 -0.7650
vn 0.3871 0.4689 0.7939
vn 0.4648 0.8665 0.1818
vn 0.9281 0.3159 -0.1973
vn -0.6455 0.6887 -0.3302
vn -0.0133 0.4125 -0.9108
vn -0.7605 0.5132 0.3979
vn -0.4685 0.4095 -0.7828
vn 0.7198 0.6868 -0.1005
vn 0.0925 -0.1931 -0.9768
vn 0.6530 -0.3872 -0.6509
vn 0.4942 -0.7174 -0.4910
vn -0.9007 -0.4157 0.1261
vn -0.2875 -0.8342 0.4706
vn -0.0971 -0.3487 0.9322
vn -0.0750 -0.7174 0.6926
vn 0.9235 -0.2565 0.2854
vn 0.7046 -0.6750 0.2190
vn -0.1591 -0.2932 -0.9427
vn 0.3810 -0.6697 0.6375
vn -0.3122 -0.7006 -0.6416
vn 0.0778 -0.7787 -0.6226
vn -0.1138 -0.7293 -0.6746
vn -0.7384 -0.6137 -0.2795
vn 0.6590 -0.7494 0.0643
vn -0.4637 -0.4377 0.7703
vn 0.6163 -0.7182 -0.3230
vn 0.9675 -0.2239 0.1171
vn -0.7461 -0.6469 0.1577
vn 0.8547 -0.2813 0.4362
vn 0.0115 -0.6437 0.7652
vn -0.3875 -0.4692 -0.7935
vn -0.4655 -0.8662 -0.1816
vn -0.9277 -0.3165 0.1980
vn 0.6456 -0.6881 0.3313
vn 0.0129 -0.4129 0.9107
vn 0.7605 -0.5135 -0.3975
vn 0.4688 -0.4097 0.7825
vn -0.7200 -0.6867 0.1001
vn 0.6930 -0.0105 0.7208
vn 0.6600 -0.0568 0.7491
vn -0.4855 0.2274 -0.8441
vn -0.7763 -0.0629 -0.6272
vn 0.0033 -0.0886 -0.9961
vn -0.1817 0.0396 -0.9826
vn -0.0067 0.1262 0.9920
vn 0.1247 0.0084 0.9922
vn -0.9929 -0.0087 -0.1190
vn -0.9354 -0.1986 -0.2925
vn 0.8293 0.3395 0.4438
vn 0.9959 -0.0829 -0.0368
vn -0.2996 -0.0028 0.9541
vn -0.3195 -0.0322 0.9470
vn 0.4530 0.2219 -0.8634
vn 0.1771 -0.0842 -0.9806
vn 0.9946 -0.0458 -0.0926
vn 0.9637 0.0956 -0.2491
vn -0.9923 0.0862 0.0892
vn -0.9769 -0.0285 0.2118
vn -0.9024 -0.0640 0.4260
vn -0.8701 -0.0225 0.4923
vn 0.9084 0.1092 -0.4037
vn 0.8015 -0.0635 -0.5946
vn 0.9884 -0.0286 0.1491
vn 0.8735 -0.3560 0.3321
vn -0.8096 0.4083 -0.4216
vn -0.9987 -0.0474 -0.0177
vn 0.3528 0.0029 -0.9357
vn 0.2875 0.0376 -0.9570
vn -0.4727 0.0697 0.8785
vn -0.0075 -0.1272 0.9918
vn -0.7141 -0.1031 -0.6924
vn -0.8069 -0.0673 -0.5869
vn 0.5941 0.2532 0.7635
vn 0.8725 -0.0143 0.4884
vn 0.1450 0.1476 0.9784
vn -0.0092 0.1265 0.9919
vn 0.1560 0.0614 -0.9859
vn -0.3666 -0.3155 -0.8752
vn -0.4534 0.0015 0.8913
vn -0.4736 -0.0249 0.8804
vn 0.5961 0.2081 -0.7755
vn 0.3410 -0.0821 -0.9365
vn 0.9451 -0.0757 -0.3179
vn 0.8917 0.0127 -0.4525
vn -0.9555 0.1476 0.2555
vn -0.9007 0.0024 0.4345
vn -0.0950 -0.0824 -0.9921
vn -0.2325 0.0291 -0.9722
vn 0.0833 0.1380 0.9869
vn 0.2186 -0.0077 0.9758
vn -0.9998 -0.0172 -0.0110
vn -0.9791 0.1298 0.1563
vn 0.9981 0.0484 0.0378
vn 0.9905 -0.0706 -0.1179
vn 0.4301 -0.0202 0.9025
vn 0.6393 0.1540 0.7534
vn -0.4773 -0.0112 -0.8787
vn -0.5386 -0.0481 -0.8412
vn -0.8955 0.0107 -0.4450
vn 0.1464 0.0189 -0.9890
vn 0.9858 0.0249 -0.1663
vn 0.4629 0.0203 0.8862
vn -0.6999 0.0116 0.7142
vn -0.6965 -0.0985 0.7107
vn 0.4610 -0.0924 0.8826
vn 0.9846 0.0536 -0.1662
vn 0.1451 0.1368 -0.9799
vn -0.8947 0.0437 -0.4446
vn -0.6999 0.0151 0.7141
vn 0.4624 0.0471 0.8854
vn 0.9858 0.0222 -0.1664
vn 0.1464 -0.0253 -0.9889
vn -0.8951 -0.0297 -0.4448
vn -0.6938 0.1317 0.7080
vn 0.4630 0.0019 0.8864
vn 0.9796 -0.1147 -0.1653
vn 0.1462 -0.0570 -0.9876
vn -0.8914 0.0960 -0.4429
usemtl Black
s 1
f 1//1 2//2 4//3 3//4
f 3//4 4//3 6//5 5//6
f 5//6 6//5 8//7 7//8
f 7//8 8//7 10//9 9//10
f 9//10 10//9 12//11 11//12
f 11//12 12//11 14//13 13//14
f 14//15 12//15 38//15 39//15
f 13//14 14//13 16//16 15//17
f 15//17 16//16 2//2 1//1
f 3//4 5//6 19//18 18//19
f 21//20 22//21 30//22 29//23
f 9//10 11//12 22//21 21//20
f 15//17 1//1 17//24 24//25
f 1//1 3//4 18//19 17//24
f 5//6 7//8 20//26 19//18
f 11//12 13//14 23//27 22//21
f 7//8 9//10 21//20 20//26
f 13//14 15//17 24//25 23//27
f 25//28 26//28 27//28 28//28 29//28 30//28 31//28 32//28
f 19//18 20//26 28//29 27//30
f 17//24 18//19 26//31 25//32
f 24//25 17//24 25//32 32//33
f 22//21 23//27 31//34 30//22
f 20//26 21//20 29//23 28//29
f 18//19 19//18 27//30 26//31
f 23//27 24//25 32//33 31//34
f 39//35 38//36 46//36 47//35
f 10//15 8//15 36//15 37//15
f 16//15 14//15 39//15 40//15
f 6//15 4//15 33//15 35//15
f 12//15 10//15 37//15 38//15
f 2//15 16//15 40//15 34//15
f 4//15 2//15 34//15 33//15
f 8//15 6//15 35//15 36//15
f 37//37 36//38 44//38 45//37
f 35//39 33//40 41//40 43//39
f 40//41 39//35 47//35 48//41
f 38//36 37//37 45//37 46//36
f 36//38 35//39 43//39 44//38
f 33//40 34//42 42//42 41//40
f 34//42 40//41 48//41 42//42
usemtl Brown
s off
f 94//43 96//43 95//43
f 71//44 70//44 72//44
f 71//45 73//45 70//45
f 75//46 74//46 76//46
f 103//47 105//47 102//47
f 79//48 78//48 80//48
f 79//49 81//49 78//49
f 83//50 82//50 84//50
f 83//51 85//51 82//51
f 87//52 86//52 88//52
f 90//53 91//53 93//53
f 115//54 117//54 114//54
f 94//55 95//55 97//55
f 87//56 89//56 86//56
f 99//57 98//57 100//57
f 107//58 109//58 106//58
f 103//59 102//59 104//59
f 127//60 129//60 126//60
f 107//61 106//61 108//61
f 119//62 121//62 118//62
f 111//63 110//63 112//63
f 123//64 125//64 122//64
f 115//65 114//65 116//65
f 99//66 101//66 98//66
f 119//67 118//67 120//67
f 111//68 113//68 110//68
f 123//69 122//69 124//69
f 127//70 126//70 128//70
f 90//71 92//71 91//71
f 75//72 77//72 74//72
f 154//73 155//73 156//73
f 131//74 132//74 130//74
f 131//75 130//75 133//75
f 135//76 136//76 134//76
f 163//77 162//77 165//77
f 139//78 140//78 138//78
f 139//79 138//79 141//79
f 143//80 144//80 142//80
f 143//81 142//81 145//81
f 147//82 148//82 146//82
f 150//83 153//83 151//83
f 175//84 174//84 177//84
f 154//85 157//85 155//85
f 147//86 146//86 149//86
f 159//87 160//87 158//87
f 167//88 166//88 169//88
f 163//89 164//89 162//89
f 187//90 186//90 189//90
f 167//91 168//91 166//91
f 179//92 178//92 181//92
f 171//93 172//93 170//93
f 183//94 182//94 185//94
f 175//95 176//95 174//95
f 159//96 158//96 161//96
f 179//97 180//97 178//97
f 171//98 170//98 173//98
f 183//99 184//99 182//99
f 187//100 188//100 186//100
f 150//101 151//101 152//101
f 135//102 134//102 137//102
f 70//103 73//103 133//103 130//103
f 72//104 70//104 130//104 132//104
f 71//105 72//105 132//105 131//105
f 73//106 71//106 131//106 133//106
f 74//107 77//107 137//107 134//107
f 76//108 74//108 134//108 136//108
f 75//109 76//109 136//109 135//109
f 77//110 75//110 135//110 137//110
f 78//111 81//111 141//111 138//111
f 80//112 78//112 138//112 140//112
f 79//113 80//113 140//113 139//113
f 81//114 79//114 139//114 141//114
f 82//115 85//115 145//115 142//115
f 84//116 82//116 142//116 144//116
f 83//117 84//117 144//117 143//117
f 85//118 83//118 143//118 145//118
f 86//119 89//119 149//119 146//119
f 88//120 86//120 146//120 148//120
f 87//121 88//121 148//121 147//121
f 89//122 87//122 147//122 149//122
f 90//123 93//123 153//123 150//123
f 92//124 90//124 150//124 152//124
f 91//125 92//125 152//125 151//125
f 93//126 91//126 151//126 153//126
f 94//127 97//127 157//127 154//127
f 96//128 94//128 154//128 156//128
f 95//129 96//129 156//129 155//129
f 97//130 95//130 155//130 157//130
f 98//131 101//131 161//131 158//131
f 100//132 98//132 158//132 160//132
f 99//133 100//133 160//133 159//133
f 101//134 99//134 159//134 161//134
f 102//135 105//135 165//135 162//135
f 104//136 102//136 162//136 164//136
f 103//137 104//137 164//137 163//137
f 105//138 103//138 163//138 165//138
f 106//139 109//139 169//139 166//139
f 108//140 106//140 166//140 168//140
f 107//141 108//141 168//141 167//141
f 109//142 107//142 167//142 169//142
f 110//143 113//143 173//143 170//143
f 112//144 110//144 170//144 172//144
f 111//145 112//145 172//145 171//145
f 113//146 111//146 171//146 173//146
f 114//147 117//147 177//147 174//147
f 116//148 114//148 174//148 176//148
f 115//149 116//149 176//149 175//149
f 117//150 115//150 175//150 177//150
f 118//151 121//151 181//151 178//151
f 120//152 118//152 178//152 180//152
f 119//153 120//153 180//153 179//153
f 121//154 119//154 179//154 181//154
f 122//155 125//155 185//155 182//155
f 124//156 122//156 182//156 184//156
f 123//157 124//157 184//157 183//157
f 125//158 123//158 183//158 185//158
f 126//159 129//159 189//159 186//159
f 128//160 126//160 186//160 188//160
f 127//161 128//161 188//161 187//161
f 129//162 127//162 187//162 189//162
s 1
f 41//15 42//15 48//15 47//15 46//15 45//15 44//15 43//15
usemtl Wood
s off
f 65//163 50//163 66//163
f 66//164 50//164 67//164
f 67//165 50//165 68//165
f 68//166 50//166 69//166
f 69//167 50//167 65//167
f 49//28 51//28 52//28 53//28 54//28
f 54//168 59//168 55//168 49//168
f 53//169 58//169 59//169 54//169
f 52//170 57//170 58//170 53//170
f 51//171 56//171 57//171 52//171
f 49//172 55//172 56//172 51//172
f 59//173 64//173 60//173 55//173
f 58//174 63//174 64//174 59//174
f 57//175 62//175 63//175 58//175
f 56//176 61//176 62//176 57//176
f 55//177 60//177 61//177 56//177
f 64//178 69//178 65//178 60//178
f 63//179 68//179 69//179 64//179
f 62//180 67//180 68//180 63//180
f 61//181 66//181 67//181 62//181
f 60//182 65//182 66//182 61//182
