# Created by Kenney (www.kenney.nl)

mtllib mushroomHalf.mtl

g mushroomHalf

v 0.06243523 0.0986 0.036047
v 0.03121762 0.1392 0.0180235
v 0.06243523 0.0986 -0.036047
v 0.03121762 0.1392 -0.0180235
v 0 0.1392 0.036047
v 0 0.1392 -0.036047
v 0.04103403 0.06959999 0.02369101
v 0.04103403 0.06959999 -0.02369101
v 0.03363445 0.087 0.01941886
v 0.03363445 0.087 -0.01941886
v 0 0.0986 0.072094
v 0.05525242 0.06959999 0.0319
v 0 0.06959999 0.0638
v 0 0.06959999 -0.0638
v 3.609557E-16 0.06959999 -0.04738202
v 0.05525242 0.06959999 -0.0319
v 3.609557E-16 0.06959999 0.04738202
v 0 0.0986 -0.072094
v 0 0.087 -0.03883772
v 0 0.087 -0.01372475
v 0.01188598 0.087 -0.006862374
v 0.01188598 0.087 0.006862374
v 0 0.087 0.03883772
v 0 0.087 0.01372475
v 0 0.1006333 0.05205727
v 0 0.1255667 0.02992001
v 0 0.1255667 -0.02992001
v 0 0.1006333 -0.05205727
v 0 0.1006333 -0.01372475
v 0 0.1006333 -0.01215471
v 0 0.1006333 0.01372475
v 0 0.1006333 0.01215471
v 0 0 -0.02374381
v 0 0 0.02374381
v 0.02056275 0 -0.01187191
v 0.02056275 0 0.01187191

vn 0.7927481 0.6095494 0
vn 0 1 0
vn -0.9202437 -0.3913458 0
vn 0.396374 0.6095494 0.6865399
vn 0.4853347 -0.2404186 0.8406243
vn 0 -1 0
vn 0.396374 0.6095494 -0.6865399
vn 0.4853347 -0.2404186 -0.8406243
vn 0.9706693 -0.2404186 0
vn -0.4601219 -0.3913458 0.7969545
vn -0.4601219 -0.3913458 -0.7969545
vn -1 0 0
vn 0.4975317 0.0992406 0.8617502
vn 0.4975317 0.0992406 -0.8617502
vn 0.9950635 0.0992406 0

vt -1.419173 1.579039
vt -0.7095866 3.595348
vt 1.419173 1.579039
vt 0.7095866 3.595348
vt 0 -1.419173
vt 0 1.419173
vt 1.22904 -0.7095866
vt 1.22904 0.7095866
vt 0.9327168 1.889389
vt -0.9327168 1.889389
vt 0.764522 2.633799
vt -0.764522 2.633799
vt 1.255906 3.182767
vt -1.255906 3.182767
vt 1.419173 4.358999
vt -1.419173 4.358999
vt 0 2.511811
vt -1.421085E-14 1.865434
vt -2.175292 1.255906
vt -1.615513 0.9327168
vt -1.615513 -0.9327168
vt -2.175292 -1.255906
vt -1.421085E-14 -1.865434
vt 0 -2.511811
vt 0 1.529044
vt 0 0.5403444
vt -1.324191 0.764522
vt -0.467952 0.2701722
vt -0.467952 -0.2701722
vt -1.324191 -0.764522
vt 0 -1.529044
vt 0 -0.5403444
vt 2.511811 2.740157
vt 2.049499 3.961942
vt 2.838346 3.88189
vt 1.419173 5.480315
vt 1.177953 4.94357
vt -1.419173 5.480315
vt -1.177953 4.94357
vt -2.049499 3.961942
vt -2.838346 3.88189
vt -2.511811 2.740157
vt -1.865434 2.740157
vt -1.529044 3.425197
vt -0.5403444 3.425197
vt -0.5403444 3.961942
vt -0.478532 3.961942
vt 1.865434 2.740157
vt 1.529044 3.425197
vt 0.5403444 3.961942
vt 0.5403444 3.425197
vt 0.478532 3.961942
vt 0 0.9347958
vt 0 -0.9347958
vt -0.8095569 0.4673979
vt -0.8095569 -0.4673979
vt 0.4673979 -0.08034091
vt -0.4673979 -0.08034091
vt 0.2701722 3.361848
vt -0.2701722 3.361848
vt -0.9347958 -3.554435E-31
vt 0.9347958 3.554435E-31

usemtl brownDark

f 3/3/1 2/2/1 1/1/1
f 2/2/1 3/3/1 4/4/1
f 2/7/2 6/6/2 5/5/2
f 6/6/2 2/7/2 4/8/2
f 9/11/3 8/10/3 7/9/3
f 8/10/3 9/11/3 10/12/3
f 2/4/4 11/1/4 1/3/4
f 11/1/4 2/4/4 5/2/4
f 1/15/5 13/14/5 12/13/5
f 13/14/5 1/15/5 11/16/5
f 16/19/6 15/18/6 14/17/6
f 15/18/6 16/19/6 8/20/6
f 8/20/6 16/19/6 7/21/6
f 12/22/6 7/21/6 16/19/6
f 12/22/6 17/23/6 7/21/6
f 17/23/6 12/22/6 13/24/6
f 6/4/7 3/1/7 18/3/7
f 3/1/7 6/4/7 4/2/7
f 10/27/6 20/26/6 19/25/6
f 20/26/6 10/27/6 21/28/6
f 21/28/6 10/27/6 22/29/6
f 9/30/6 22/29/6 10/27/6
f 23/31/6 22/29/6 9/30/6
f 22/29/6 23/31/6 24/32/6
f 18/15/8 16/14/8 14/13/8
f 16/14/8 18/15/8 3/16/8
f 12/14/9 3/15/9 1/16/9
f 3/15/9 12/14/9 16/13/9
f 10/11/10 15/10/10 8/9/10
f 15/10/10 10/11/10 19/12/10
f 23/11/11 7/10/11 17/9/11
f 7/10/11 23/11/11 9/12/11
f 11/35/12 25/34/12 13/33/12
f 25/34/12 11/35/12 5/36/12
f 25/34/12 5/36/12 26/37/12
f 26/37/12 5/36/12 6/38/12
f 26/37/12 6/38/12 27/39/12
f 27/39/12 6/38/12 28/40/12
f 28/40/12 6/38/12 18/41/12
f 28/40/12 18/41/12 14/42/12
f 15/43/12 28/40/12 14/42/12
f 19/44/12 28/40/12 15/43/12
f 20/45/12 28/40/12 19/44/12
f 20/45/12 29/46/12 28/40/12
f 29/46/12 20/45/12 30/47/12
f 25/34/12 17/48/12 13/33/12
f 17/48/12 25/34/12 23/49/12
f 23/49/12 25/34/12 31/50/12
f 23/49/12 31/50/12 24/51/12
f 24/51/12 31/50/12 32/52/12

usemtl brownLight

f 35/55/6 34/54/6 33/53/6
f 34/54/6 35/55/6 36/56/6
f 22/59/13 34/58/13 36/57/13
f 34/58/13 22/59/13 24/60/13
f 20/59/14 35/58/14 33/57/14
f 35/58/14 20/59/14 21/60/14
f 35/57/15 22/60/15 36/58/15
f 22/60/15 35/57/15 21/59/15
f 26/37/12 31/50/12 25/34/12
f 31/50/12 26/37/12 27/39/12
f 31/50/12 27/39/12 32/52/12
f 32/52/12 27/39/12 30/47/12
f 30/47/12 27/39/12 29/46/12
f 29/46/12 27/39/12 28/40/12
f 33/61/12 32/52/12 30/47/12
f 33/61/12 24/51/12 32/52/12
f 24/51/12 33/61/12 34/62/12
f 33/61/12 30/47/12 20/45/12

